<svg xmlns="http://www.w3.org/2000/svg" width="1080" height="1080" viewBox="0 0 1080 1080" version="1.1"><path d="M 592 22.366 C 582.783 24.510, 572.921 28.039, 564.172 32.325 C 554.787 36.922, 546.621 43.795, 547.168 46.636 C 547.368 47.672, 550.869 50.408, 555.260 52.961 C 559.517 55.436, 563 57.715, 563 58.026 C 563 58.337, 559.288 58.696, 554.750 58.824 C 501.424 60.327, 391.338 70.805, 342.451 79.030 C 303.855 85.524, 282.017 91.457, 263.500 100.482 C 192.891 134.894, 133.436 215.222, 91.886 332.343 C 73.376 384.519, 57.071 456.435, 51.494 510.500 C 51.153 513.800, 50.703 517.850, 50.494 519.500 C 48.117 538.240, 46.228 574.454, 46.087 604 C 45.984 625.624, 47.186 657.981, 48.465 668 C 48.710 669.925, 49.176 674.875, 49.498 679 C 50.815 695.824, 56.100 730.923, 60.039 749 C 85.526 865.958, 137.586 943.056, 227 996.253 C 284.219 1030.296, 358.833 1051.988, 435 1056.723 C 453.808 1057.892, 509.802 1057.521, 524 1056.133 C 581.275 1050.533, 626.030 1041.387, 675.500 1025.173 C 724.961 1008.963, 782.638 980.974, 821 954.568 C 838.244 942.698, 843.083 939.172, 854.500 930.159 C 927.416 872.596, 979.006 800.487, 1005.305 719.373 C 1017.410 682.038, 1026.655 639.119, 1030.480 602.500 C 1031.342 594.250, 1032.486 583.373, 1033.024 578.330 C 1034.276 566.570, 1034.291 519.736, 1033.047 509.409 C 1032.522 505.059, 1031.591 496.325, 1030.976 490 C 1021.787 395.447, 982.412 301.678, 920.957 228 C 895.641 197.649, 862.790 166.673, 834.425 146.409 C 829.106 142.609, 820.197 135.874, 814.627 131.442 C 788.037 110.286, 756.667 92.043, 712.500 72.051 C 660.943 48.714, 642.845 39.937, 623.194 28.738 C 611.807 22.249, 610.387 21.701, 604.194 21.406 C 600.512 21.231, 595.025 21.663, 592 22.366 M 484.500 116.045 C 438.470 119.751, 395.033 128.931, 347.728 144.951 C 287.283 165.420, 258.316 181.891, 229.494 212.177 C 172.481 272.088, 132.596 370.636, 117.052 490 C 109.994 544.202, 109.058 609.632, 114.598 661.500 C 122.699 737.337, 143.185 803.011, 172.461 847 C 221.145 920.149, 326.320 970.322, 459 983.691 C 480.962 985.904, 545.339 986.197, 565.500 984.176 C 663.766 974.326, 726.321 949.965, 790.646 896.496 C 805.146 884.443, 821.578 868.448, 833.756 854.533 C 839.548 847.915, 845.470 841.150, 846.917 839.500 C 852.268 833.399, 868.125 811.723, 876.323 799.304 C 923.072 728.489, 951.784 646.025, 960.166 558.500 C 962.216 537.093, 961.664 491.925, 959.085 470.075 C 952.062 410.560, 935.983 361.374, 908.312 314.759 C 889.985 283.884, 862.837 251.537, 835.500 228.005 C 820.373 214.984, 788.295 195.155, 750.223 175.291 C 734.052 166.854, 733.924 166.808, 730.723 168.308 C 716.056 175.179, 702.371 179.007, 692.562 178.982 C 685.565 178.964, 685.325 178.872, 666.500 168.974 C 613.796 141.263, 585.814 128.385, 566.698 123.046 C 547.184 117.595, 535.315 115.863, 515 115.504 C 504.275 115.315, 490.550 115.558, 484.500 116.045 M 350.317 399.437 C 333.753 403.215, 325.596 411.149, 320.395 428.543 C 318.002 436.545, 318.002 451.442, 320.395 459.500 C 328.047 485.264, 347.663 497.282, 375 492.956 C 399.658 489.054, 412.783 465.234, 406.531 435.730 C 403.356 420.749, 392.236 406.709, 379.509 401.614 C 371.064 398.234, 359.404 397.364, 350.317 399.437 M 681.634 405.586 C 660.092 410.801, 646.952 427.204, 647.017 448.799 C 647.075 467.584, 657.746 487.672, 671.671 495.210 C 689.535 504.880, 713.839 497.910, 728.024 479.051 C 734.361 470.626, 737.061 463.485, 737.729 453.386 C 739.834 421.535, 712.384 398.144, 681.634 405.586 M 257.500 569.941 C 253.301 570.942, 250.326 572.990, 249.071 575.743 C 246.442 581.513, 248.849 609.503, 253.520 627.479 C 265.576 673.881, 296.696 713.915, 344.438 744.439 C 388.521 772.624, 445.393 790.827, 505.759 796.074 C 518.905 797.216, 570.121 796.845, 578.500 795.546 C 580.700 795.205, 587.450 794.241, 593.500 793.402 C 678.429 781.635, 745.911 738.425, 776.067 676.500 C 784.800 658.569, 792.174 632.975, 793.663 615.426 C 794.245 608.573, 794.177 608.285, 791.497 606.176 C 785.427 601.402, 780.613 603.705, 772.011 615.500 C 725.128 679.789, 655.324 718.481, 569.805 727.584 C 541.673 730.579, 501.373 728.689, 470.500 722.926 C 399.609 709.695, 334.361 675.694, 299.360 633.746 C 286.955 618.878, 280.418 607.243, 274.372 589.270 C 270.219 576.923, 268.935 574.138, 266.352 571.866 C 263.866 569.679, 261.114 569.080, 257.500 569.941" stroke="none" fill="#3c3c3c" fill-rule="evenodd"/><path d="M 591.500 8.698 C 586.936 9.303, 564.155 16.952, 558.500 19.778 C 545.172 26.439, 536.751 34.260, 534.844 41.750 C 534.249 44.087, 533.377 46, 532.905 46 C 523.146 46, 448.084 52.229, 417.500 55.578 C 351.603 62.792, 307.026 70.443, 280.762 79.047 C 223.828 97.699, 171.186 146.212, 128.668 219.213 C 102.575 264.013, 85.487 304.720, 66.842 366.500 C 52.654 413.511, 41.742 470.944, 35.399 532 C 33.251 552.679, 32.293 635.643, 33.940 658.426 C 36.252 690.428, 40.579 721.323, 46.556 748.500 C 48.491 757.300, 50.935 768.413, 51.987 773.195 C 55.974 791.318, 65.907 820.520, 77.790 849.050 C 83.123 861.855, 94.071 881.966, 105.077 899.175 C 114.648 914.141, 115.991 915.937, 131.114 934 C 175.692 987.247, 247.868 1031.140, 324.500 1051.604 C 383.458 1067.349, 417.890 1071.495, 483.349 1070.735 C 517.334 1070.340, 527.634 1069.877, 542.500 1068.075 C 611.232 1059.741, 680.327 1041.257, 736 1016.308 C 792.383 991.042, 838.103 962.491, 880 926.386 C 897.881 910.977, 921.223 887.688, 935.511 871.003 C 965.749 835.691, 994.378 787.852, 1009.871 746.749 C 1019.750 720.539, 1031.639 679.935, 1034.539 662.500 C 1034.905 660.300, 1036.249 653.100, 1037.524 646.500 C 1038.800 639.900, 1040.751 627.975, 1041.861 620 C 1042.971 612.025, 1044.469 601.450, 1045.190 596.500 C 1046.112 590.164, 1046.500 574.624, 1046.500 544 C 1046.500 498.688, 1046.504 498.749, 1041.416 465.500 C 1032.305 405.969, 1013.424 349.739, 985.688 299.533 C 981.734 292.378, 978.321 286.068, 978.101 285.512 C 976.151 280.566, 940.503 229.005, 936.611 225.500 C 936 224.950, 931.139 219.325, 925.808 213 C 903.242 186.224, 872.977 158.030, 843.478 136.302 C 834.665 129.811, 821.840 120.188, 814.978 114.918 C 808.115 109.647, 799.800 103.527, 796.500 101.318 C 778.940 89.562, 745.982 72.387, 707.908 55.154 C 664.062 35.307, 647.400 27.102, 626.529 15.079 C 621.595 12.236, 615.745 9.492, 613.529 8.980 C 609.578 8.067, 597.429 7.911, 591.500 8.698 M 592 22.366 C 582.783 24.510, 572.921 28.039, 564.172 32.325 C 554.787 36.922, 546.621 43.795, 547.168 46.636 C 547.368 47.672, 550.869 50.408, 555.260 52.961 C 559.517 55.436, 563 57.715, 563 58.026 C 563 58.337, 559.288 58.696, 554.750 58.824 C 501.424 60.327, 391.338 70.805, 342.451 79.030 C 303.855 85.524, 282.017 91.457, 263.500 100.482 C 192.891 134.894, 133.436 215.222, 91.886 332.343 C 73.376 384.519, 57.071 456.435, 51.494 510.500 C 51.153 513.800, 50.703 517.850, 50.494 519.500 C 48.117 538.240, 46.228 574.454, 46.087 604 C 45.984 625.624, 47.186 657.981, 48.465 668 C 48.710 669.925, 49.176 674.875, 49.498 679 C 50.815 695.824, 56.100 730.923, 60.039 749 C 85.526 865.958, 137.586 943.056, 227 996.253 C 284.219 1030.296, 358.833 1051.988, 435 1056.723 C 453.808 1057.892, 509.802 1057.521, 524 1056.133 C 581.275 1050.533, 626.030 1041.387, 675.500 1025.173 C 724.961 1008.963, 782.638 980.974, 821 954.568 C 838.244 942.698, 843.083 939.172, 854.500 930.159 C 927.416 872.596, 979.006 800.487, 1005.305 719.373 C 1017.410 682.038, 1026.655 639.119, 1030.480 602.500 C 1031.342 594.250, 1032.486 583.373, 1033.024 578.330 C 1034.276 566.570, 1034.291 519.736, 1033.047 509.409 C 1032.522 505.059, 1031.591 496.325, 1030.976 490 C 1021.787 395.447, 982.412 301.678, 920.957 228 C 895.641 197.649, 862.790 166.673, 834.425 146.409 C 829.106 142.609, 820.197 135.874, 814.627 131.442 C 788.037 110.286, 756.667 92.043, 712.500 72.051 C 660.943 48.714, 642.845 39.937, 623.194 28.738 C 611.807 22.249, 610.387 21.701, 604.194 21.406 C 600.512 21.231, 595.025 21.663, 592 22.366 M 484.500 116.045 C 438.470 119.751, 395.033 128.931, 347.728 144.951 C 287.283 165.420, 258.316 181.891, 229.494 212.177 C 172.481 272.088, 132.596 370.636, 117.052 490 C 109.994 544.202, 109.058 609.632, 114.598 661.500 C 122.699 737.337, 143.185 803.011, 172.461 847 C 221.145 920.149, 326.320 970.322, 459 983.691 C 480.962 985.904, 545.339 986.197, 565.500 984.176 C 663.766 974.326, 726.321 949.965, 790.646 896.496 C 805.146 884.443, 821.578 868.448, 833.756 854.533 C 839.548 847.915, 845.470 841.150, 846.917 839.500 C 852.268 833.399, 868.125 811.723, 876.323 799.304 C 923.072 728.489, 951.784 646.025, 960.166 558.500 C 962.216 537.093, 961.664 491.925, 959.085 470.075 C 952.062 410.560, 935.983 361.374, 908.312 314.759 C 889.985 283.884, 862.837 251.537, 835.500 228.005 C 820.373 214.984, 788.295 195.155, 750.223 175.291 C 734.052 166.854, 733.924 166.808, 730.723 168.308 C 716.056 175.179, 702.371 179.007, 692.562 178.982 C 685.565 178.964, 685.325 178.872, 666.500 168.974 C 613.796 141.263, 585.814 128.385, 566.698 123.046 C 547.184 117.595, 535.315 115.863, 515 115.504 C 504.275 115.315, 490.550 115.558, 484.500 116.045 M 350.317 399.437 C 333.753 403.215, 325.596 411.149, 320.395 428.543 C 318.002 436.545, 318.002 451.442, 320.395 459.500 C 328.047 485.264, 347.663 497.282, 375 492.956 C 399.658 489.054, 412.783 465.234, 406.531 435.730 C 403.356 420.749, 392.236 406.709, 379.509 401.614 C 371.064 398.234, 359.404 397.364, 350.317 399.437 M 681.634 405.586 C 660.092 410.801, 646.952 427.204, 647.017 448.799 C 647.075 467.584, 657.746 487.672, 671.671 495.210 C 689.535 504.880, 713.839 497.910, 728.024 479.051 C 734.361 470.626, 737.061 463.485, 737.729 453.386 C 739.834 421.535, 712.384 398.144, 681.634 405.586 M 257.500 569.941 C 253.301 570.942, 250.326 572.990, 249.071 575.743 C 246.442 581.513, 248.849 609.503, 253.520 627.479 C 265.576 673.881, 296.696 713.915, 344.438 744.439 C 388.521 772.624, 445.393 790.827, 505.759 796.074 C 518.905 797.216, 570.121 796.845, 578.500 795.546 C 580.700 795.205, 587.450 794.241, 593.500 793.402 C 678.429 781.635, 745.911 738.425, 776.067 676.500 C 784.800 658.569, 792.174 632.975, 793.663 615.426 C 794.245 608.573, 794.177 608.285, 791.497 606.176 C 785.427 601.402, 780.613 603.705, 772.011 615.500 C 725.128 679.789, 655.324 718.481, 569.805 727.584 C 541.673 730.579, 501.373 728.689, 470.500 722.926 C 399.609 709.695, 334.361 675.694, 299.360 633.746 C 286.955 618.878, 280.418 607.243, 274.372 589.270 C 270.219 576.923, 268.935 574.138, 266.352 571.866 C 263.866 569.679, 261.114 569.080, 257.500 569.941" stroke="none" fill="#fbfbfb" fill-rule="evenodd"/></svg>